<svg width="35" height="32" viewBox="0 0 35 32" fill="none" xmlns="http://www.w3.org/2000/svg">
<g clip-path="url(#clip0_4245_2647)">
<path d="M16.0319 0L9.78928 9.36066V15.2946H5.96299V9.36066L0 0H4.30046L8.09221 6.02718L11.915 0H16.0319Z" fill="black"/>
<path d="M22.4572 11.9291H15.5316L14.123 15.3303H11.0562L17.5412 0.0356445H20.6781L26.9 15.3303H23.6228L22.4572 11.9291H22.4572ZM21.3068 8.87549L19.1837 3.26279L16.8151 8.87549H21.3068Z" fill="#CB171E"/>
<path d="M5.96289 17.0098V31.9999H9.17909V21.6598L12.545 28.6099H15.0766L18.5575 21.4155V31.9968H21.6429V17.0098H17.4301L13.6922 23.7889L10.1321 17.0098H5.96289Z" fill="black"/>
<path d="M34.8116 28.7424H26.9V17.0063H23.623V31.932H34.8116V28.7425V28.7424Z" fill="black"/>
</g>
<defs>
<clipPath id="clip0_4245_2647">
<rect width="34.8117" height="32" fill="white"/>
</clipPath>
</defs>
</svg>
